<?xml version="1.0" encoding="UTF-8"?>
<svg version="1.1" xmlns="http://www.w3.org/2000/svg" width="537" height="141">
<path d="M0 0 C8.20481768 6.0638299 12.40561846 14.29997767 14.93359375 24.08984375 C16.75723735 36.46851544 14.8917847 47.86839802 11.3203125 59.71484375 C12.03316406 60.06675781 12.74601562 60.41867188 13.48046875 60.78125 C29.2491074 68.90963305 34.67678233 81.4907125 41.4453125 97.15234375 C46.74457403 109.38320418 46.74457403 109.38320418 57.2890625 116.9765625 C60.2644405 118.05799796 63.26059686 118.90308246 66.3203125 119.71484375 C67.3203125 120.71484375 67.3203125 120.71484375 67.4453125 123.21484375 C67.3203125 125.71484375 67.3203125 125.71484375 66.3203125 126.71484375 C58.0207559 127.84491731 51.92138291 125.11555736 45.1328125 120.58984375 C37.05133399 113.25634361 33.22103196 101.13129141 29.08398438 91.34765625 C25.50493363 83.267462 20.94679868 74.45258256 12.6550293 70.41796875 C10.54566655 69.68928371 8.51306235 69.1191806 6.3203125 68.71484375 C6.22065186 69.41053467 6.12099121 70.10622559 6.01831055 70.82299805 C5.19421141 74.23728774 3.8172179 76.89102461 2.15234375 79.984375 C1.5019064 81.20748441 0.85185554 82.43079941 0.20214844 83.65429688 C-0.13659302 84.28730713 -0.47533447 84.92031738 -0.82434082 85.57250977 C-8.39875992 99.77088826 -14.91619009 113.42847775 -18.13671875 129.3359375 C-18.6796875 131.71484375 -18.6796875 131.71484375 -19.6796875 132.71484375 C-21.67927114 132.75565158 -23.68014004 132.75738731 -25.6796875 132.71484375 C-31.40248785 113.12088492 -10.16875965 83.70959279 -1.6796875 67.71484375 C-2.86304688 67.66585937 -4.04640625 67.616875 -5.265625 67.56640625 C-22.07065931 66.80674611 -36.52990765 65.22121837 -48.6484375 52.13671875 C-56.75795959 42.46767318 -63.12110877 32.73677129 -62.6796875 19.71484375 C-61.43863674 11.64801378 -57.95105065 4.96816179 -51.41796875 -0.0078125 C-35.3795578 -10.25527444 -16.02379878 -10.27230987 0 0 Z M-50.6796875 10.71484375 C-53.76541747 15.54915404 -55.2247782 20.27613326 -54.3125 26.03125 C-51.38073284 37.59544269 -42.40931916 49.0049878 -32.25 55.1953125 C-24.55109501 58.78554261 -16.66680111 58.94825412 -8.3046875 59.27734375 C-7.28246094 59.32052734 -6.26023437 59.36371094 -5.20703125 59.40820312 C-2.69803462 59.51372167 -0.18894807 59.61583588 2.3203125 59.71484375 C2.96995273 57.82031154 3.61486365 55.92415726 4.2578125 54.02734375 C4.61746094 52.97160156 4.97710937 51.91585937 5.34765625 50.828125 C8.60037078 40.41682589 9.02782482 27.75161531 4.3203125 17.71484375 C-0.24584382 9.79163792 -7.21071778 3.73845227 -16.0703125 1.1875 C-28.65624433 -1.09228705 -41.91860055 0.67714128 -50.6796875 10.71484375 Z " fill="#DCC09B" transform="translate(335.6796875,7.28515625)"/>
<path d="M0 0 C5.23554325 4.01373006 6.57080167 8.58537881 8.33984375 14.6640625 C8.6292836 15.61074799 8.91872345 16.55743347 9.2169342 17.5328064 C10.13871426 20.55925263 11.03857341 23.59169651 11.9375 26.625 C12.53693312 28.60982207 13.13783195 30.59420211 13.74023438 32.578125 C14.92446322 36.48311043 16.10276332 40.38980728 17.27685547 44.29785156 C18.94699854 49.84102839 20.64858818 55.37375671 22.37890625 60.8984375 C22.62946274 61.70608551 22.88001923 62.51373352 23.13816833 63.34585571 C24.04645557 66.95763542 24.04645557 66.95763542 26 70 C26.31114746 69.06655762 26.62229492 68.13311523 26.94287109 67.17138672 C27.15120575 66.54642303 27.35954041 65.92145935 27.57418823 65.27755737 C28.04915929 63.85256128 28.52402961 62.42753161 28.99880981 61.00247192 C30.33478125 56.99305743 31.67259386 52.98427205 33.01367188 48.9765625 C35.43604821 41.73187775 37.85422271 34.48680946 40.19302368 27.21463013 C41.08019877 24.45670605 41.97558277 21.70147755 42.87139893 18.9463501 C43.48969424 17.03190993 44.09530115 15.11338679 44.70068359 13.19482422 C45.07789551 12.03740723 45.45510742 10.87999023 45.84375 9.6875 C46.16537109 8.68074219 46.48699219 7.67398438 46.81835938 6.63671875 C48.13092084 3.70786258 49.55565342 2.05784477 52 0 C55.74390967 -0.92866509 59.06447074 -0.50374653 62.4375 1.3125 C65.1387185 4.22981598 65.17561355 7.2712083 65.38891602 11.07202148 C65.44890274 12.10838242 65.50888947 13.14474335 65.57069397 14.21250916 C65.63115402 15.33734207 65.69161407 16.46217499 65.75390625 17.62109375 C65.81907944 18.79019791 65.88425262 19.95930206 65.95140076 21.16383362 C66.08876201 23.65118078 66.22395787 26.1386483 66.35717773 28.6262207 C66.55853354 32.36387287 66.76997479 36.10085465 66.98242188 39.83789062 C67.58897841 50.79823464 68.12816837 61.74345349 68.15234375 72.72265625 C68.15528946 73.5582457 68.15823517 74.39383514 68.16127014 75.25474548 C68.12901257 80.87098743 68.12901257 80.87098743 67 82 C64.5625 82.1875 64.5625 82.1875 62 82 C59.61658356 79.61658356 59.67213889 78.84903803 59.40844727 75.57958984 C59.33498077 74.68004578 59.26151428 73.78050171 59.18582153 72.85369873 C58.87930633 68.14648294 58.64994799 63.44004153 58.46484375 58.7265625 C58.40037804 57.15906754 58.40037804 57.15906754 58.33460999 55.55990601 C58.24499418 53.36323761 58.15683449 51.16650936 58.07006836 48.96972656 C57.93813804 45.64109784 57.80046368 42.31274221 57.66210938 38.984375 C57.5751768 36.83595139 57.48857736 34.68751428 57.40234375 32.5390625 C57.36173325 31.56055328 57.32112274 30.58204407 57.27928162 29.57388306 C57.01280914 22.71310068 56.95624212 15.86559685 57 9 C54.7926752 9.82982314 54.7926752 9.82982314 54.10978699 12.16548157 C53.65941826 13.60010994 53.65941826 13.60010994 53.19995117 15.0637207 C52.85586716 16.14607498 52.51178314 17.22842926 52.15727234 18.34358215 C51.60569206 20.11677071 51.60569206 20.11677071 51.04296875 21.92578125 C50.46570793 23.74543648 50.46570793 23.74543648 49.87678528 25.60185242 C48.84927975 28.84252273 47.82779102 32.08494972 46.80999756 35.32867432 C45.38935446 39.8560949 43.96488261 44.38227919 42.53034973 48.90531921 C41.76804301 51.31118365 41.01080746 53.71866304 40.25956726 56.12800598 C33.33640773 78.00205839 33.33640773 78.00205839 28 81 C24.4375 80.9375 24.4375 80.9375 21 80 C18.58971783 77.35185579 17.41802617 74.82348326 16.37768555 71.42529297 C16.09696701 70.52269745 15.81624847 69.62010193 15.52702332 68.69015503 C15.23322281 67.71732574 14.9394223 66.74449646 14.63671875 65.7421875 C14.32225296 64.72512726 14.00778717 63.70806702 13.68379211 62.66018677 C12.67747063 59.40072809 11.68204421 56.13806943 10.6875 52.875 C9.38209304 48.62141232 8.0723426 44.36917027 6.76171875 40.1171875 C6.44476044 39.08632019 6.12780212 38.05545288 5.80123901 36.99334717 C3.00936999 27.94697628 0.04961489 18.96239598 -3 10 C-4.85544172 11.85544172 -4.3203915 14.92314772 -4.44897461 17.41577148 C-4.48492233 18.08570129 -4.52087006 18.7556311 -4.5579071 19.44586182 C-4.63573161 20.90484202 -4.71146398 22.36393494 -4.78538322 23.82311821 C-4.9028064 26.13018362 -5.02677931 28.43680861 -5.15272522 30.74342346 C-5.50990568 37.30313406 -5.85671999 43.86336391 -6.19506836 50.42407227 C-6.40226322 54.43271114 -6.61853315 58.44077639 -6.84045601 62.44862556 C-6.92331722 63.97908995 -7.00261164 65.50975165 -7.07832146 67.04058647 C-7.18425564 69.1792236 -7.30163593 71.31694644 -7.42163086 73.45483398 C-7.485233 74.67315414 -7.54883514 75.8914743 -7.61436462 77.14671326 C-8 80 -8 80 -10 82 C-12.5625 82.1875 -12.5625 82.1875 -15 82 C-16.53513733 80.46486267 -16.13617248 79.06376197 -16.14599609 76.92480469 C-16.1499942 76.0579303 -16.15399231 75.19105591 -16.15811157 74.2979126 C-16.15491913 73.34882019 -16.15172668 72.39972778 -16.1484375 71.421875 C-16.14629242 70.43813904 -16.14414734 69.45440308 -16.14193726 68.44085693 C-16.0706095 58.34862776 -15.51734613 48.30293297 -14.828125 38.23632812 C-14.62229482 35.21022863 -14.43162821 32.18341533 -14.2421875 29.15625 C-14.11286806 27.19264959 -13.98269179 25.22910538 -13.8515625 23.265625 C-13.79626373 22.3800592 -13.74096497 21.49449341 -13.68399048 20.58209229 C-13.37519284 16.20514926 -12.91100394 11.87631964 -12.19677734 7.54589844 C-12.06524261 6.74520935 -11.93370789 5.94452026 -11.79818726 5.11956787 C-9.75483687 -0.306502 -5.22216348 -0.73293523 0 0 Z " fill="#DCC09B" transform="translate(124,58)"/>
<path d="M0 0 C4.6009142 1.093125 6.91594255 5.08572829 9.38671875 8.8515625 C10.14652987 10.15392704 10.89727164 11.46160973 11.640625 12.7734375 C12.06110107 13.50087158 12.48157715 14.22830566 12.91479492 14.9777832 C17.28415848 22.57411608 21.52961594 30.24186919 25.78955078 37.89990234 C30.45178601 46.25577848 35.27474774 54.50697088 40.2043457 62.70776367 C40.71570068 63.56217041 41.22705566 64.41657715 41.75390625 65.296875 C42.20419189 66.04372559 42.65447754 66.79057617 43.1184082 67.56005859 C44.203125 69.5234375 44.203125 69.5234375 45.203125 72.5234375 C45.863125 72.5234375 46.523125 72.5234375 47.203125 72.5234375 C47.20090439 71.6361647 47.19868378 70.74889191 47.19639587 69.83473206 C47.17639539 61.49099093 47.16115211 53.14725781 47.15131283 44.80349827 C47.14608439 40.51343835 47.13898747 36.22339817 47.12768555 31.93334961 C47.11685525 27.7966435 47.11084786 23.65995642 47.10824776 19.52323723 C47.10639376 17.94151446 47.10277364 16.35979279 47.09739494 14.77807808 C47.0901826 12.57020912 47.08913414 10.36241977 47.08959961 8.15454102 C47.087379 6.89545425 47.08515839 5.63636749 47.08287048 4.33912659 C47.203125 1.5234375 47.203125 1.5234375 48.203125 0.5234375 C51.203125 0.3984375 51.203125 0.3984375 54.203125 0.5234375 C56.12461444 2.44492694 55.37020975 6.02275613 55.38012695 8.6418457 C55.38669815 9.38659149 55.39326935 10.13133728 55.40003967 10.89865112 C55.41981944 13.37384124 55.43144598 15.84897055 55.44140625 18.32421875 C55.44548178 19.16781637 55.4495573 20.01141399 55.45375633 20.88057518 C55.4746377 25.34608086 55.48893005 29.81155562 55.49829102 34.27709961 C55.5093559 38.89430523 55.5437505 43.51102894 55.58346272 48.12806416 C55.60958747 51.6736695 55.61797918 55.21915939 55.62157249 58.76485252 C55.62644974 60.46693359 55.63809601 62.16900912 55.65661049 63.87099648 C55.68091341 66.25333598 55.68005363 68.63442064 55.6730957 71.0168457 C55.68590576 71.72090042 55.69871582 72.42495514 55.71191406 73.15034485 C55.67661246 76.4647529 55.4002214 78.25441978 53.41984558 80.95744324 C50.75483209 82.84013241 48.52924685 83.0432306 45.30078125 83.15234375 C38.1449564 81.00692885 34.68344217 71.860906 31.328125 65.8984375 C30.67900146 64.75922852 30.02987793 63.62001953 29.36108398 62.44628906 C23.33838384 51.86221293 17.44015028 41.20725507 11.546875 30.55078125 C7.83067253 23.83713507 4.04589347 17.16541111 0.203125 10.5234375 C-0.126875 10.5234375 -0.456875 10.5234375 -0.796875 10.5234375 C-0.79243378 11.39596161 -0.78799255 12.26848572 -0.78341675 13.16744995 C-0.74339125 21.37842355 -0.71291673 29.58936452 -0.69325066 37.80041313 C-0.68280036 42.022095 -0.66861855 46.24369645 -0.64599609 50.46533203 C-0.62431197 54.53721027 -0.61231577 58.60901103 -0.60712051 62.68094254 C-0.60341676 64.23672837 -0.59618454 65.79250982 -0.58541489 67.34826279 C-0.57095862 69.52247124 -0.56889456 71.69635692 -0.56982422 73.87060547 C-0.565383 75.10970673 -0.56094177 76.34880798 -0.55636597 77.62545776 C-0.796875 80.5234375 -0.796875 80.5234375 -2.796875 82.5234375 C-5.296875 82.7734375 -5.296875 82.7734375 -7.796875 82.5234375 C-10.67454481 79.64576769 -10.05719601 77.61276925 -10.0715332 73.58276367 C-10.07664413 72.86873886 -10.08175507 72.15471405 -10.08702087 71.41905212 C-10.10095485 69.05141891 -10.09995683 66.68407568 -10.09765625 64.31640625 C-10.10154207 62.67214347 -10.1058765 61.02788169 -10.11064148 59.38362122 C-10.11811257 55.93271639 -10.11780672 52.48191383 -10.11254883 49.03100586 C-10.10676332 44.6123992 -10.1236584 40.19421295 -10.1468935 35.77567577 C-10.16164216 32.37756407 -10.16250083 28.97955322 -10.15938377 25.58141518 C-10.15989676 23.95275352 -10.16513028 22.32408618 -10.17519569 20.69545555 C-10.18756033 18.41412664 -10.18076812 16.13361124 -10.16918945 13.85229492 C-10.16981888 12.55482834 -10.1704483 11.25736176 -10.1710968 9.920578 C-9.37123062 2.65948905 -6.86617802 0.49792894 0 0 Z " fill="#DCC09B" transform="translate(481.796875,57.4765625)"/>
<path d="M0 0 C0.74001755 -0.0004985 1.4800351 -0.00099701 2.24247742 -0.00151062 C3.79294547 0.00081398 5.34341847 0.01044624 6.89379883 0.02709961 C9.27263753 0.05089045 11.65036783 0.04762444 14.02929688 0.04101562 C15.54037128 0.04658682 17.05144099 0.05369317 18.5625 0.0625 C19.27392654 0.06158859 19.98535309 0.06067719 20.71833801 0.05973816 C25.71810837 0.13217087 25.71810837 0.13217087 27.94921875 2.36328125 C27.57421875 4.98828125 27.57421875 4.98828125 26.94921875 7.36328125 C25.6331665 7.40086548 25.6331665 7.40086548 24.29052734 7.43920898 C21.01404684 7.53473509 17.73771977 7.63394368 14.46142578 7.7355957 C13.0474071 7.77872376 11.63334373 7.82041293 10.21923828 7.8605957 C8.17857435 7.91883875 6.1381308 7.98237266 4.09765625 8.046875 C2.87224121 8.08353271 1.64682617 8.12019043 0.38427734 8.15795898 C-2.82862467 8.35000238 -5.89019712 8.76882065 -9.05078125 9.36328125 C-9.22517878 11.09168532 -9.3896714 12.821088 -9.55078125 14.55078125 C-9.64359375 15.51371094 -9.73640625 16.47664063 -9.83203125 17.46875 C-10.14787345 23.09186925 -10.05078125 28.73129879 -10.05078125 34.36328125 C0.50921875 34.36328125 11.06921875 34.36328125 21.94921875 34.36328125 C22.44421875 36.83828125 22.44421875 36.83828125 22.94921875 39.36328125 C20.15709364 42.15540636 17.49617586 41.714662 13.75390625 41.77734375 C13.04646271 41.7967099 12.33901917 41.81607605 11.61013794 41.83602905 C9.3482879 41.89585777 7.08638705 41.94222226 4.82421875 41.98828125 C3.29164435 42.02645811 1.75909147 42.06550967 0.2265625 42.10546875 C-3.53237749 42.20156164 -7.29141793 42.28557974 -11.05078125 42.36328125 C-10.94004457 46.05135281 -10.80962153 49.73848154 -10.67578125 53.42578125 C-10.64484375 54.46412109 -10.61390625 55.50246094 -10.58203125 56.57226562 C-10.37994823 64.69697127 -10.37994823 64.69697127 -8.05078125 72.36328125 C-3.69917914 74.27937767 0.05725425 74.59163665 4.7734375 74.5234375 C6.04896484 74.51248047 7.32449219 74.50152344 8.63867188 74.49023438 C9.95802734 74.46896484 11.27738281 74.44769531 12.63671875 74.42578125 C15.26563544 74.38934333 17.89436069 74.36125552 20.5234375 74.3359375 C21.68447998 74.31797119 22.84552246 74.30000488 24.04174805 74.28149414 C26.94921875 74.36328125 26.94921875 74.36328125 29.94921875 75.36328125 C30.82421875 77.23828125 30.82421875 77.23828125 30.94921875 79.36328125 C29.92260742 80.97119141 29.92260742 80.97119141 27.94921875 82.36328125 C25.38341074 82.66195866 23.06536434 82.78387498 20.5 82.76171875 C19.40282906 82.76602402 19.40282906 82.76602402 18.28349304 82.77041626 C16.73431628 82.77245721 15.18511376 82.76692507 13.63598633 82.75439453 C11.28732073 82.738455 8.94040621 82.75418053 6.59179688 82.7734375 C5.0820275 82.77145282 3.57225921 82.76760451 2.0625 82.76171875 C1.36949295 82.76779144 0.6764859 82.77386414 -0.03752136 82.78012085 C-6.426132 82.69000728 -11.74832347 81.49794398 -16.51977539 77.07421875 C-19.49910062 71.72651776 -18.59989657 64.91804891 -18.546875 58.98828125 C-18.54703015 57.57633388 -18.5485218 56.16438608 -18.55128479 54.75244141 C-18.55266569 51.80026305 -18.54016362 48.84857236 -18.51733398 45.89648438 C-18.48894961 42.12370235 -18.49169049 38.35172987 -18.5044241 34.57888794 C-18.51139899 31.66537636 -18.5035715 28.75204993 -18.49116707 25.83856201 C-18.4866701 24.44798494 -18.48630035 23.05738787 -18.49023247 21.66680908 C-18.49316216 19.71924543 -18.47441531 17.77168616 -18.45483398 15.82421875 C-18.449431 14.71868652 -18.44402802 13.6131543 -18.4384613 12.47412109 C-17.98721462 8.85320705 -16.96236772 6.46057344 -15.05078125 3.36328125 C-10.10574553 0.48679685 -5.61220737 -0.07370115 0 0 Z " fill="#DCC09B" transform="translate(229.05078125,57.63671875)"/>
<path d="M0 0 C0.74001755 -0.0004985 1.4800351 -0.00099701 2.24247742 -0.00151062 C3.79294547 0.00081398 5.34341847 0.01044624 6.89379883 0.02709961 C9.27263753 0.05089045 11.65036783 0.04762444 14.02929688 0.04101562 C15.54037128 0.04658682 17.05144099 0.05369317 18.5625 0.0625 C19.27392654 0.06158859 19.98535309 0.06067719 20.71833801 0.05973816 C25.71810837 0.13217087 25.71810837 0.13217087 27.94921875 2.36328125 C27.57421875 4.98828125 27.57421875 4.98828125 26.94921875 7.36328125 C26.07185059 7.38310059 25.19448242 7.40291992 24.29052734 7.42333984 C21.01389298 7.50175725 17.73769014 7.58846008 14.46142578 7.68066406 C13.04744812 7.71878363 11.6333791 7.75366529 10.21923828 7.78515625 C8.17838035 7.83117983 6.13814215 7.88910792 4.09765625 7.94921875 C2.87224121 7.98063965 1.64682617 8.01206055 0.38427734 8.04443359 C-3.04526198 8.36276894 -5.84305358 9.13944941 -9.05078125 10.36328125 C-10.33561035 18.23285947 -10.05078125 25.08673547 -10.05078125 33.36328125 C0.17921875 33.69328125 10.40921875 34.02328125 20.94921875 34.36328125 C21.60921875 36.01328125 22.26921875 37.66328125 22.94921875 39.36328125 C20.15709364 42.15540636 17.49617586 41.714662 13.75390625 41.77734375 C13.04646271 41.7967099 12.33901917 41.81607605 11.61013794 41.83602905 C9.3482879 41.89585777 7.08638705 41.94222226 4.82421875 41.98828125 C3.29164435 42.02645811 1.75909147 42.06550967 0.2265625 42.10546875 C-3.53237749 42.20156164 -7.29141793 42.28557974 -11.05078125 42.36328125 C-10.9403588 46.23883982 -10.80985761 50.11347457 -10.67578125 53.98828125 C-10.64484375 55.08269531 -10.61390625 56.17710938 -10.58203125 57.3046875 C-10.52004976 65.1212361 -10.52004976 65.1212361 -8.05078125 72.36328125 C-3.67636074 74.23516182 0.04806347 74.59176955 4.7734375 74.5234375 C6.04896484 74.51248047 7.32449219 74.50152344 8.63867188 74.49023438 C9.95802734 74.46896484 11.27738281 74.44769531 12.63671875 74.42578125 C15.26563544 74.38934333 17.89436069 74.36125552 20.5234375 74.3359375 C21.68447998 74.31797119 22.84552246 74.30000488 24.04174805 74.28149414 C26.94921875 74.36328125 26.94921875 74.36328125 29.94921875 75.36328125 C30.82421875 77.23828125 30.82421875 77.23828125 30.94921875 79.36328125 C29.92260742 80.97119141 29.92260742 80.97119141 27.94921875 82.36328125 C25.38341074 82.66195866 23.06536434 82.78387498 20.5 82.76171875 C19.40282906 82.76602402 19.40282906 82.76602402 18.28349304 82.77041626 C16.73431628 82.77245721 15.18511376 82.76692507 13.63598633 82.75439453 C11.28732073 82.738455 8.94040621 82.75418053 6.59179688 82.7734375 C5.0820275 82.77145282 3.57225921 82.76760451 2.0625 82.76171875 C1.36949295 82.76779144 0.6764859 82.77386414 -0.03752136 82.78012085 C-4.93742215 82.71100605 -9.89098201 82.11686685 -14.05078125 79.36328125 C-17.50505387 75.12091624 -18.55168841 72.22956656 -18.55249023 66.79467773 C-18.56656166 64.86754189 -18.56656166 64.86754189 -18.58091736 62.901474 C-18.57043949 61.51243417 -18.55907053 60.12340081 -18.546875 58.734375 C-18.54703013 57.29761176 -18.54852142 55.86084811 -18.55128479 54.42408752 C-18.55266566 51.42063784 -18.54016248 48.41766751 -18.51733398 45.41430664 C-18.48892397 41.57192867 -18.49169749 37.73034498 -18.5044241 33.88790798 C-18.51139066 30.92382567 -18.50358139 27.95992579 -18.49116707 24.99586678 C-18.48666383 23.57934329 -18.48630589 22.16280015 -18.49023247 20.74627495 C-18.4931546 18.7649804 -18.47444212 16.78368991 -18.45483398 14.80249023 C-18.449431 13.6769725 -18.44402802 12.55145477 -18.4384613 11.39183044 C-17.9998454 7.96537134 -17.1274693 6.10455794 -15.05078125 3.36328125 C-10.03105221 0.54187255 -5.74653251 -0.07546514 0 0 Z " fill="#DCC09B" transform="translate(429.05078125,57.63671875)"/>
<path d="M0 0 C2.62890625 0.30078125 2.62890625 0.30078125 4.2265625 1.8203125 C4.70996094 2.57699219 5.19335938 3.33367188 5.69140625 4.11328125 C6.27921875 5.015625 6.86703125 5.91796875 7.47265625 6.84765625 C8.1922505 7.99817031 8.91089581 9.14927811 9.62890625 10.30078125 C10.59678968 11.82737268 11.56561006 13.3533703 12.53515625 14.87890625 C14.58979999 18.11783046 16.6306644 21.36489536 18.6640625 24.6171875 C21.56553024 29.23717952 24.57910132 33.77767971 27.62890625 38.30078125 C32.1928009 34.16240511 35.22967377 29.53145037 38.44140625 24.30078125 C38.96549072 23.46369629 39.4895752 22.62661133 40.02954102 21.76416016 C42.41583731 17.94183987 44.76162975 14.10338526 47.01171875 10.19921875 C47.36387451 9.59722656 47.71603027 8.99523437 48.07885742 8.375 C49.00417761 6.78285451 49.90910528 5.17890647 50.8125 3.57421875 C52.62890625 1.30078125 52.62890625 1.30078125 55.234375 0.39453125 C57.62890625 0.30078125 57.62890625 0.30078125 59.50390625 1.42578125 C60.62890625 3.30078125 60.62890625 3.30078125 60.515625 5.4140625 C59.24520407 9.54992623 56.96646937 12.79069561 54.56640625 16.36328125 C54.06979492 17.11552979 53.57318359 17.86777832 53.06152344 18.64282227 C51.59098309 20.86688418 50.11036036 23.08398066 48.62890625 25.30078125 C47.87408097 26.44340383 47.12007721 27.58656987 46.3671875 28.73046875 C40.90963143 36.9864966 40.90963143 36.9864966 38.86645508 39.27392578 C32.4054573 47.04945621 32.67633354 54.71150701 32.81640625 64.30078125 C32.82242208 66.56706373 32.81865473 68.83287173 32.80525208 71.09912109 C32.79728415 73.13380041 32.81624883 75.16853256 32.83666992 77.203125 C32.62890625 80.30078125 32.62890625 80.30078125 30.62890625 82.30078125 C27.50390625 81.92578125 27.50390625 81.92578125 24.62890625 81.30078125 C24.65621826 80.42566895 24.68353027 79.55055664 24.71166992 78.64892578 C25.26347669 54.59841887 25.26347669 54.59841887 14.45019531 33.66210938 C11.49893 29.83575038 8.82822301 25.82489845 6.13500977 21.81445312 C4.69806972 19.67655501 3.24082872 17.55213069 1.76147461 15.44335938 C1.09510986 14.47333984 0.42874512 13.50332031 -0.2578125 12.50390625 C-0.85811279 11.64442383 -1.45841309 10.78494141 -2.0769043 9.89941406 C-3.61488988 6.81125739 -3.69115744 4.70871482 -3.37109375 1.30078125 C-2.37109375 0.30078125 -2.37109375 0.30078125 0 0 Z " fill="#DCC09B" transform="translate(3.37109375,57.69921875)"/>
<path d="M0 0 C2.5 -0.3125 2.5 -0.3125 5 0 C7.4570586 2.4570586 7.24223338 3.82301409 7.27105713 7.17660522 C7.26700867 7.89563019 7.26296021 8.61465515 7.25878906 9.35546875 C7.2622937 10.11332672 7.26579834 10.87118469 7.26940918 11.65200806 C7.2782313 14.16393114 7.27237574 16.67557392 7.265625 19.1875 C7.26697151 20.92863011 7.26891193 22.66975985 7.27142334 24.41088867 C7.27437525 28.06269912 7.27007483 31.71441183 7.26074219 35.36621094 C7.24934759 40.05406981 7.25590671 44.7416997 7.26788712 49.42955017 C7.27510392 53.0256931 7.27281862 56.62178148 7.26763153 60.21792603 C7.26629454 61.9467471 7.26794449 63.67557308 7.27259064 65.40438843 C7.27765297 67.81790341 7.26994999 70.23104423 7.25878906 72.64453125 C7.26283752 73.36355621 7.26688599 74.08258118 7.27105713 74.82339478 C7.22852896 79.77147104 7.22852896 79.77147104 5 82 C2.5 82.3125 2.5 82.3125 0 82 C-2.38864438 78.41703343 -2.28287233 75.86578133 -2.25878906 71.73046875 C-2.2622937 70.99357819 -2.26579834 70.25668762 -2.26940918 69.49746704 C-2.27821446 67.06071564 -2.27238167 64.62425437 -2.265625 62.1875 C-2.266972 60.49503524 -2.26891282 58.80257086 -2.27142334 57.11010742 C-2.27437297 53.56262529 -2.27008215 50.01524386 -2.26074219 46.46777344 C-2.24934772 41.91792282 -2.25590806 37.36830815 -2.26788712 32.81846619 C-2.27511007 29.3235089 -2.27281578 25.82860765 -2.26763153 22.33364868 C-2.26629624 20.65589368 -2.26793855 18.97813361 -2.27259064 17.30038452 C-2.27766304 14.95662941 -2.26993578 12.61325777 -2.25878906 10.26953125 C-2.26283752 9.57437408 -2.26688599 8.87921692 -2.27105713 8.16299438 C-2.23911274 4.54204057 -2.07034969 3.10552454 0 0 Z " fill="#DCC09B" transform="translate(275,58)"/>
<path d="M0 0 C3.125 -0.1875 3.125 -0.1875 6 0 C7.49769497 2.99538995 7.14733414 6.07046776 7.14526367 9.35546875 C7.15030159 10.49225571 7.15030159 10.49225571 7.15544128 11.65200806 C7.16496127 14.16385525 7.1668948 16.67563588 7.16796875 19.1875 C7.17118016 20.92862984 7.17454414 22.66975941 7.17805481 24.41088867 C7.18404839 28.06266913 7.18589443 31.71442591 7.18530273 35.36621094 C7.185201 40.05405299 7.19886407 44.74174397 7.21607494 49.42955017 C7.22717168 53.02568261 7.22922268 56.62177822 7.22869301 60.21792603 C7.22987623 61.94675213 7.23431702 63.6755791 7.24202538 65.40438843 C7.25178027 67.81787838 7.24896545 70.2310364 7.24291992 72.64453125 C7.24853943 73.36355621 7.25415894 74.08258118 7.25994873 74.82339478 C7.22831705 79.77168295 7.22831705 79.77168295 5 82 C1.875 81.625 1.875 81.625 -1 81 C-1.77354689 76.20046529 -2.13028573 71.59485357 -2.14526367 66.73535156 C-2.14862228 66.04664474 -2.1519809 65.35793793 -2.15544128 64.64836121 C-2.16486014 62.39576364 -2.16688907 60.14324097 -2.16796875 57.890625 C-2.17118511 56.3159787 -2.17454947 54.7413327 -2.17805481 53.16668701 C-2.1840215 49.87853298 -2.18589699 46.59040515 -2.18530273 43.30224609 C-2.18520067 39.08658205 -2.19890949 34.87108475 -2.21607494 30.65546036 C-2.22717747 27.40929386 -2.22922257 24.1631681 -2.22869301 20.91698456 C-2.22987358 19.36203176 -2.23429969 17.80707792 -2.24202538 16.25214386 C-2.25180015 14.0836652 -2.24895857 11.91555463 -2.24291992 9.74707031 C-2.24434494 8.51353821 -2.24576996 7.2800061 -2.24723816 6.00909424 C-2 3 -2 3 0 0 Z " fill="#DCC09B" transform="translate(82,58)"/>
</svg>
